<svg width="32" height="32" viewBox="0 0 32 32" fill="none" xmlns="http://www.w3.org/2000/svg">
<path d="M16.6667 6.66675C14.0145 6.66675 11.471 7.72032 9.59562 9.59568C7.72026 11.471 6.66669 14.0146 6.66669 16.6667C6.66669 19.3189 7.72026 21.8625 9.59562 23.7378C11.471 25.6132 14.0145 26.6667 16.6667 26.6667C19.3189 26.6667 21.8624 25.6132 23.7378 23.7378C25.6131 21.8625 26.6667 19.3189 26.6667 16.6667C26.6667 14.0146 25.6131 11.471 23.7378 9.59568C21.8624 7.72032 19.3189 6.66675 16.6667 6.66675ZM9.33335 13.3334H12C12.3536 13.3334 12.6928 13.4739 12.9428 13.7239C13.1929 13.974 13.3334 14.3131 13.3334 14.6667V16.0001C13.3334 16.6667 12.8267 17.2001 12.1867 17.2934L13.7467 20.0001H12.2L10.6667 17.3334V20.0001H9.33335V13.3334ZM16 13.3334H18.6667V14.6667H16V16.0001H18.6667V17.3334H16V18.6667H18.6667V20.0001H16C15.6464 20.0001 15.3073 19.8596 15.0572 19.6096C14.8072 19.3595 14.6667 19.0204 14.6667 18.6667V14.6667C14.6667 14.3131 14.8072 13.974 15.0572 13.7239C15.3073 13.4739 15.6464 13.3334 16 13.3334V13.3334ZM21.3334 13.3334H24V14.6667H21.3334V18.6667H24V20.0001H21.3334C20.9797 20.0001 20.6406 19.8596 20.3905 19.6096C20.1405 19.3595 20 19.0204 20 18.6667V14.6667C20 14.3131 20.1405 13.974 20.3905 13.7239C20.6406 13.4739 20.9797 13.3334 21.3334 13.3334V13.3334ZM10.6667 14.6667V16.0001H12V14.6667" fill="#101112"/>
</svg>
