<svg width="20" height="15" viewBox="0 0 20 15" fill="none" xmlns="http://www.w3.org/2000/svg">
<path d="M18.443 3.00513L15.7412 4.56078V1.35237C15.7412 0.607263 15.1354 0.00146484 14.3903 0.00146484H1.89437C1.14926 0.00146484 0.543457 0.607263 0.543457 1.35237V13.5106C0.543457 14.2557 1.14926 14.8615 1.89437 14.8615H14.3903C15.1354 14.8615 15.7412 14.2557 15.7412 13.5106V10.3021L18.443 11.8578C18.8926 12.1174 19.4562 11.7924 19.4562 11.2752V3.58982C19.4562 3.07056 18.8926 2.7455 18.443 3.00513ZM6.11596 4.05419C6.11596 4.14707 6.03997 4.22306 5.94709 4.22306H3.583C3.49013 4.22306 3.41414 4.14707 3.41414 4.05419V3.04101C3.41414 2.94814 3.49013 2.87215 3.583 2.87215H5.94709C6.03997 2.87215 6.11596 2.94814 6.11596 3.04101V4.05419ZM17.9364 9.81666L15.7412 8.55441V6.31063L17.9364 5.04627V9.81666Z" fill="white"/>
</svg>
