<svg width="12" height="15" viewBox="0 0 12 15" fill="none" xmlns="http://www.w3.org/2000/svg">
<path d="M10.644 5.5725H10.1796C9.92302 5.5725 9.71521 5.78031 9.71521 6.03687V7.43C9.71521 9.60095 7.84349 11.3429 5.629 11.127C3.69894 10.9386 2.28521 9.20362 2.28521 7.26457V6.03687C2.28521 5.78031 2.07741 5.5725 1.82084 5.5725H1.35646C1.0999 5.5725 0.89209 5.78031 0.89209 6.03687V7.20246C0.89209 9.80412 2.74872 12.1234 5.30365 12.4757V13.4669H3.67834C3.42177 13.4669 3.21396 13.6747 3.21396 13.9312V14.3956C3.21396 14.6522 3.42177 14.86 3.67834 14.86H8.32208C8.57865 14.86 8.78646 14.6522 8.78646 14.3956V13.9312C8.78646 13.6747 8.57865 13.4669 8.32208 13.4669H6.69677V12.4868C9.18437 12.1454 11.1083 10.0102 11.1083 7.43V6.03687C11.1083 5.78031 10.9005 5.5725 10.644 5.5725ZM6.00021 10.2162C7.53903 10.2162 8.78646 8.96882 8.78646 7.43H6.30989C6.13894 7.43 6.00021 7.3261 6.00021 7.19781V6.73344C6.00021 6.60515 6.13894 6.50125 6.30989 6.50125H8.78646V5.5725H6.30989C6.13894 5.5725 6.00021 5.4686 6.00021 5.34031V4.87594C6.00021 4.74765 6.13894 4.64375 6.30989 4.64375H8.78646V3.715H6.30989C6.13894 3.715 6.00021 3.6111 6.00021 3.48281V3.01844C6.00021 2.89015 6.13894 2.78625 6.30989 2.78625H8.78646C8.78646 1.24743 7.53903 0 6.00021 0C4.46139 0 3.21396 1.24743 3.21396 2.78625V7.43C3.21396 8.96882 4.46139 10.2162 6.00021 10.2162Z" fill="white"/>
</svg>
