<svg width="16" height="15" viewBox="0 0 16 15" fill="none" xmlns="http://www.w3.org/2000/svg">
<path d="M2.4991 0.408569H13.5008C14.126 0.408569 14.7257 0.656948 15.1678 1.09906C15.6099 1.54118 15.8583 2.14082 15.8583 2.76607V9.83857C15.8583 10.4638 15.6099 11.0635 15.1678 11.5056C14.7257 11.9477 14.126 12.1961 13.5008 12.1961H2.4991C1.87385 12.1961 1.27421 11.9477 0.832097 11.5056C0.38998 11.0635 0.141602 10.4638 0.141602 9.83857V2.76607C0.141602 2.14082 0.38998 1.54118 0.832097 1.09906C1.27421 0.656948 1.87385 0.408569 2.4991 0.408569ZM5.64244 12.9819H10.3574C10.5659 12.9819 10.7657 13.0647 10.9131 13.2121C11.0605 13.3594 11.1433 13.5593 11.1433 13.7677C11.1433 13.9762 11.0605 14.176 10.9131 14.3234C10.7657 14.4708 10.5659 14.5536 10.3574 14.5536H5.64244C5.43402 14.5536 5.23414 14.4708 5.08677 14.3234C4.93939 14.176 4.8566 13.9762 4.8566 13.7677C4.8566 13.5593 4.93939 13.3594 5.08677 13.2121C5.23414 13.0647 5.43402 12.9819 5.64244 12.9819Z"/>
</svg>
