<svg width="55" height="55" viewBox="0 0 55 55" fill="none" xmlns="http://www.w3.org/2000/svg">
<path d="M27.4999 38.958C23.7645 38.958 20.4874 37.1476 18.3333 34.3747H27.4999C29.3233 34.3747 31.072 33.6503 32.3613 32.361C33.6506 31.0717 34.3749 29.323 34.3749 27.4997C34.3749 26.6976 34.2145 25.9184 33.9624 25.208H38.7291C38.8666 25.9413 38.9582 26.7205 38.9582 27.4997C38.9582 30.5386 37.751 33.4531 35.6022 35.6019C33.4533 37.7508 30.5389 38.958 27.4999 38.958V38.958ZM27.4999 16.0413C31.2353 16.0413 34.5124 17.8518 36.6666 20.6247H27.4999C25.6766 20.6247 23.9279 21.349 22.6386 22.6383C21.3492 23.9276 20.6249 25.6763 20.6249 27.4997C20.6249 28.3018 20.7853 29.058 21.0374 29.7913H16.2708C16.1103 29.058 16.0416 28.2788 16.0416 27.4997C16.0416 24.4607 17.2488 21.5463 19.3977 19.3974C21.5465 17.2486 24.461 16.0413 27.4999 16.0413V16.0413ZM45.8332 9.16634H38.5687L34.3749 4.58301H20.6249L16.4312 9.16634H9.16658C7.95101 9.16634 6.78522 9.64923 5.92568 10.5088C5.06614 11.3683 4.58325 12.5341 4.58325 13.7497V41.2497C4.58325 42.4652 5.06614 43.631 5.92568 44.4906C6.78522 45.3501 7.95101 45.833 9.16658 45.833H45.8332C47.0488 45.833 48.2146 45.3501 49.0742 44.4906C49.9337 43.631 50.4166 42.4652 50.4166 41.2497V13.7497C50.4166 12.5341 49.9337 11.3683 49.0742 10.5088C48.2146 9.64923 47.0488 9.16634 45.8332 9.16634V9.16634Z" fill="#101112"/>
</svg>
