<svg width="14" height="13" viewBox="0 0 14 13" fill="none" xmlns="http://www.w3.org/2000/svg">
<g clip-path="url(#clip0)">
<path d="M12.1949 13H10.5699C10.3499 13 10.1595 12.9196 9.99866 12.7588C9.83785 12.598 9.75745 12.4076 9.75745 12.1875V10.5625C9.75745 10.3424 9.83785 10.152 9.99866 9.99121C10.1595 9.8304 10.3499 9.75 10.5699 9.75H12.1949C12.415 9.75 12.6054 9.8304 12.7662 9.99121C12.927 10.152 13.0074 10.3424 13.0074 10.5625V12.1875C13.0074 12.416 12.9292 12.6086 12.7726 12.7651C12.616 12.9217 12.4235 13 12.1949 13ZM12.1949 8.125H10.5699C10.3499 8.125 10.1595 8.04671 9.99866 7.89014C9.83785 7.73356 9.75745 7.54102 9.75745 7.3125V5.6875C9.75745 5.45898 9.83785 5.26644 9.99866 5.10986C10.1595 4.95329 10.3499 4.875 10.5699 4.875H12.1949C12.415 4.875 12.6054 4.95329 12.7662 5.10986C12.927 5.26644 13.0074 5.45898 13.0074 5.6875V7.3125C13.0074 7.54102 12.9292 7.73356 12.7726 7.89014C12.616 8.04671 12.4235 8.125 12.1949 8.125ZM12.1949 3.25H10.5699C10.3499 3.25 10.1595 3.1696 9.99866 3.00879C9.83785 2.84798 9.75745 2.65755 9.75745 2.4375V0.8125C9.75745 0.583984 9.83785 0.391439 9.99866 0.234863C10.1595 0.0782878 10.3499 0 10.5699 0H12.1949C12.415 0 12.6054 0.0782878 12.7662 0.234863C12.927 0.391439 13.0074 0.583984 13.0074 0.8125V2.4375C13.0074 2.65755 12.9292 2.84798 12.7726 3.00879C12.616 3.1696 12.4235 3.25 12.1949 3.25ZM7.31995 13H5.69495C5.46643 13 5.27389 12.9196 5.11731 12.7588C4.96073 12.598 4.88245 12.4076 4.88245 12.1875V10.5625C4.88245 10.3424 4.96285 10.152 5.12366 9.99121C5.28446 9.8304 5.47489 9.75 5.69495 9.75H7.31995C7.54846 9.75 7.74101 9.8304 7.89758 9.99121C8.05416 10.152 8.13245 10.3424 8.13245 10.5625V12.1875C8.13245 12.416 8.05416 12.6086 7.89758 12.7651C7.74101 12.9217 7.54846 13 7.31995 13ZM7.31995 8.125H5.69495C5.46643 8.125 5.27389 8.04671 5.11731 7.89014C4.96073 7.73356 4.88245 7.54102 4.88245 7.3125V5.6875C4.88245 5.45898 4.96285 5.26644 5.12366 5.10986C5.28446 4.95329 5.47489 4.875 5.69495 4.875H7.31995C7.54846 4.875 7.74101 4.95329 7.89758 5.10986C8.05416 5.26644 8.13245 5.45898 8.13245 5.6875V7.3125C8.13245 7.54102 8.05416 7.73356 7.89758 7.89014C7.74101 8.04671 7.54846 8.125 7.31995 8.125ZM7.31995 3.25H5.69495C5.46643 3.25 5.27389 3.1696 5.11731 3.00879C4.96073 2.84798 4.88245 2.65755 4.88245 2.4375V0.8125C4.88245 0.583984 4.96285 0.391439 5.12366 0.234863C5.28446 0.0782878 5.47489 0 5.69495 0H7.31995C7.54846 0 7.74101 0.0782878 7.89758 0.234863C8.05416 0.391439 8.13245 0.583984 8.13245 0.8125V2.4375C8.13245 2.65755 8.05416 2.84798 7.89758 3.00879C7.74101 3.1696 7.54846 3.25 7.31995 3.25ZM2.44495 13H0.819946C0.599894 13 0.409465 12.9196 0.248657 12.7588C0.0878499 12.598 0.00744629 12.4076 0.00744629 12.1875V10.5625C0.00744629 10.3424 0.0878499 10.152 0.248657 9.99121C0.409465 9.8304 0.599894 9.75 0.819946 9.75H2.44495C2.665 9.75 2.85543 9.8304 3.01624 9.99121C3.17704 10.152 3.25745 10.3424 3.25745 10.5625V12.1875C3.25745 12.416 3.17916 12.6086 3.02258 12.7651C2.86601 12.9217 2.67346 13 2.44495 13ZM2.44495 8.125H0.819946C0.599894 8.125 0.409465 8.04671 0.248657 7.89014C0.0878499 7.73356 0.00744629 7.54102 0.00744629 7.3125V5.6875C0.00744629 5.45898 0.0878499 5.26644 0.248657 5.10986C0.409465 4.95329 0.599894 4.875 0.819946 4.875H2.44495C2.665 4.875 2.85543 4.95329 3.01624 5.10986C3.17704 5.26644 3.25745 5.45898 3.25745 5.6875V7.3125C3.25745 7.54102 3.17916 7.73356 3.02258 7.89014C2.86601 8.04671 2.67346 8.125 2.44495 8.125ZM2.44495 3.25H0.819946C0.599894 3.25 0.409465 3.1696 0.248657 3.00879C0.0878499 2.84798 0.00744629 2.65755 0.00744629 2.4375V0.8125C0.00744629 0.583984 0.0878499 0.391439 0.248657 0.234863C0.409465 0.0782878 0.599894 0 0.819946 0H2.44495C2.665 0 2.85543 0.0782878 3.01624 0.234863C3.17704 0.391439 3.25745 0.583984 3.25745 0.8125V2.4375C3.25745 2.65755 3.17916 2.84798 3.02258 3.00879C2.86601 3.1696 2.67346 3.25 2.44495 3.25Z" fill="#101112"/>
</g>
<defs>
<clipPath id="clip0">
<rect width="13.0144" height="13" fill="white"/>
</clipPath>
</defs>
</svg>
